HIERARCHY
ROOT Hips
{
	OFFSET -0.001795 -0.223333 0.028219
	CHANNELS 6 Xposition Yposition Zposition Zrotation Yrotation Xrotation 
	JOINT LeftUpLeg
	{
		OFFSET 0.069520 -0.091406 -0.006815
		CHANNELS 3 Zrotation Yrotation Xrotation
		JOINT LeftLeg
		{
			OFFSET 0.034277 -0.375199 -0.004496
			CHANNELS 3 Zrotation Yrotation Xrotation
			JOINT LeftFoot
			{
				OFFSET -0.013596 -0.397961 -0.043693
				CHANNELS 3 Zrotation Yrotation Xrotation
				JOINT LeftToe
				{
					OFFSET 0.026358 -0.055791 0.119288
					CHANNELS 3 Zrotation Yrotation Xrotation
					End Site
					{
						OFFSET 0.000000 0.000000 0.000000
					}
				}
			}
		}
	}
	JOINT RightUpLeg
	{
		OFFSET -0.067670 -0.090522 -0.004320
		CHANNELS 3 Zrotation Yrotation Xrotation
		JOINT RightLeg
		{
			OFFSET -0.038290 -0.382569 -0.008850
			CHANNELS 3 Zrotation Yrotation Xrotation
			JOINT RightFoot
			{
				OFFSET 0.015774 -0.398415 -0.042312
				CHANNELS 3 Zrotation Yrotation Xrotation
				JOINT RightToe
				{
					OFFSET -0.025372 -0.048144 0.123348
					CHANNELS 3 Zrotation Yrotation Xrotation
					End Site
					{
						OFFSET 0.000000 0.000000 0.000000
					}
				}
			}
		}
	}
	JOINT Spine
	{
		OFFSET -0.002533 0.108963 -0.026696
		CHANNELS 3 Zrotation Yrotation Xrotation
		JOINT Spine1
		{
			OFFSET 0.005487 0.135180 0.001092
			CHANNELS 3 Zrotation Yrotation Xrotation
			JOINT Spine2
			{
				OFFSET 0.001457 0.052922 0.025425
				CHANNELS 3 Zrotation Yrotation Xrotation
				JOINT Neck
				{
					OFFSET -0.002778 0.213870 -0.042857
					CHANNELS 3 Zrotation Yrotation Xrotation
					JOINT Head
					{
						OFFSET 0.005152 0.064970 0.051349
						CHANNELS 3 Zrotation Yrotation Xrotation
						End Site
						{
							OFFSET 0.000000 0.000000 0.000000
						}
					}
				}
				JOINT LeftShoulder
				{
					OFFSET 0.078845 0.121749 -0.034090
					CHANNELS 3 Zrotation Yrotation Xrotation
					JOINT LeftArm
					{
						OFFSET 0.090977 0.030469 -0.008868
						CHANNELS 3 Zrotation Yrotation Xrotation
						JOINT LeftForeArm
						{
							OFFSET 0.259612 -0.012772 -0.027456
							CHANNELS 3 Zrotation Yrotation Xrotation
							JOINT LeftHand
							{
								OFFSET 0.249234 0.008986 -0.001171
								CHANNELS 3 Zrotation Yrotation Xrotation
								End Site
								{
									OFFSET 0.000000 0.000000 0.000000
								}
							}
						}
					}
				}
				JOINT RightShoulder
				{
					OFFSET -0.081759 0.118833 -0.038615
					CHANNELS 3 Zrotation Yrotation Xrotation
					JOINT RightArm
					{
						OFFSET -0.096012 0.032551 -0.009143
						CHANNELS 3 Zrotation Yrotation Xrotation
						JOINT RightForeArm
						{
							OFFSET -0.253742 -0.013329 -0.021401
							CHANNELS 3 Zrotation Yrotation Xrotation
							JOINT RightHand
							{
								OFFSET -0.255298 0.007772 -0.005559
								CHANNELS 3 Zrotation Yrotation Xrotation
								End Site
								{
									OFFSET 0.000000 0.000000 0.000000
								}
							}
						}
					}
				}
			}
		}
	}
}
MOTION
Frames: 17
Frame Time: 0.050000
0.627037 0.936297 0.892064 -4.686758 79.822592 -9.114897 5.705762 -1.597844 -11.484213 -3.343865 -1.694897 11.887914 16.587614 22.958659 29.686082 0.000000 0.000000 0.000000 -5.048656 -4.157868 13.404057 2.711303 -2.179689 4.558659 3.701620 -0.419679 -6.699720 0.000000 0.000000 0.000000 -3.234708 -1.357326 13.703688 -0.815579 2.417884 -19.920060 2.495108 12.365622 28.528314 -0.050858 3.300866 -6.131280 0.000000 0.000000 0.000000 -9.834999 -20.858819 -6.818040 -31.548683 -28.605720 3.315338 68.787902 -63.603267 -61.776148 0.000000 0.000000 0.000000 -2.509252 21.670911 12.756441 -14.846064 37.305252 -1.762884 -63.431147 19.331302 -3.858324 0.000000 0.000000 0.000000 
0.637589 0.935922 0.885490 -5.327241 79.104103 -9.300363 5.456725 -1.624268 -12.001152 -3.595187 -1.920344 13.226142 17.638178 23.692039 29.687136 0.000000 0.000000 0.000000 -5.553816 -4.083662 13.011557 2.260235 -2.113252 5.315789 4.075834 0.936430 -6.458750 0.000000 0.000000 0.000000 -3.288671 -1.229173 13.116787 -1.272761 2.472597 -19.358461 2.952464 13.253728 27.977106 0.632451 2.895930 -6.193916 0.000000 0.000000 0.000000 -9.383267 -20.849793 -6.459538 -31.928630 -28.774251 3.200233 70.897014 -63.769021 -63.950749 0.000000 0.000000 0.000000 -2.816034 21.517911 12.542225 -14.245375 38.289838 -1.642925 -61.072935 20.318676 -4.210613 0.000000 0.000000 0.000000 
0.649623 0.935210 0.877310 -4.894323 78.717404 -8.551222 4.913083 -1.609661 -12.363882 -4.110651 -2.174663 14.544879 18.619223 24.367790 29.502690 0.000000 0.000000 0.000000 -6.678579 -4.050505 12.230512 1.833970 -2.337553 7.240810 4.821587 3.065811 -6.348900 0.000000 0.000000 0.000000 -3.065894 -1.128736 12.592922 -1.412227 2.474700 -19.574044 2.739279 14.213549 28.372797 0.642310 2.875723 -6.377866 0.000000 0.000000 0.000000 -9.237635 -20.709362 -6.675836 -32.962617 -28.750288 3.244597 73.213662 -65.212232 -67.548492 0.000000 0.000000 0.000000 -2.738316 21.197368 12.673013 -13.442292 38.292096 -1.483094 -60.353148 21.795932 -4.778374 0.000000 0.000000 0.000000 
0.662442 0.935844 0.868302 -4.470874 79.225263 -8.083920 3.881081 -1.509441 -12.338417 -4.104310 -2.418435 15.560105 18.730265 24.404545 28.926360 0.000000 0.000000 0.000000 -7.495951 -4.110018 11.690921 1.928106 -2.680124 8.403425 4.095570 2.085504 -4.537812 0.000000 0.000000 0.000000 -3.114273 -1.046524 12.136689 -1.737116 2.520787 -18.813710 2.756930 14.255657 27.672385 0.892540 2.300105 -5.697723 0.000000 0.000000 0.000000 -9.512456 -20.746668 -6.867103 -33.737763 -27.806523 3.267269 77.794780 -67.336093 -73.525545 0.000000 0.000000 0.000000 -2.285773 21.293003 13.138221 -12.914160 38.248664 -1.466127 -57.469478 22.480648 -5.069955 0.000000 0.000000 0.000000 
0.674302 0.936678 0.860121 -4.749589 80.120434 -8.244784 3.234440 -1.449043 -12.240330 -4.440919 -2.595895 16.145896 18.602726 24.189655 28.243042 0.000000 0.000000 0.000000 -8.083721 -4.022919 10.353826 1.767581 -3.517650 11.257984 3.644847 1.643018 -3.001445 0.000000 0.000000 0.000000 -2.613330 -0.946503 11.477437 -1.802395 2.521744 -18.339336 2.385825 14.138490 27.178039 0.607942 1.576152 -4.325957 0.000000 0.000000 0.000000 -9.399701 -20.513187 -7.055912 -34.752668 -27.597390 3.277947 82.531872 -69.504414 -80.285760 0.000000 0.000000 0.000000 -2.524479 21.642532 13.399381 -12.998743 38.564585 -1.462274 -52.883793 20.685127 -3.969782 0.000000 0.000000 0.000000 
0.683762 0.938630 0.854115 -6.686330 81.580658 -10.263287 2.771814 -1.311919 -11.540626 -4.282128 -2.586780 15.798173 17.759455 23.267681 27.157594 0.000000 0.000000 0.000000 -8.124883 -3.999051 9.610296 1.119163 -4.043388 13.238643 3.221276 1.657848 -0.409858 0.000000 0.000000 0.000000 -2.007899 -0.857549 10.819315 -1.747604 2.511083 -18.086618 2.395848 13.648601 27.278163 0.464201 1.093302 -3.413457 0.000000 0.000000 0.000000 -9.754949 -20.792770 -7.582431 -35.704433 -27.254732 3.399953 86.633963 -71.698204 -86.424439 0.000000 0.000000 0.000000 -3.276761 22.610174 13.665500 -13.639448 39.009011 -1.483877 -46.877467 18.078940 -2.753839 0.000000 0.000000 0.000000 
0.690633 0.940951 0.851198 -8.737596 82.727909 -12.326257 2.751725 -1.220634 -10.854506 -4.468045 -2.500812 15.144876 16.964530 22.426686 26.553768 0.000000 0.000000 0.000000 -7.828845 -3.902502 9.003738 0.382598 -4.358818 14.581917 2.720448 1.567236 2.118520 0.000000 0.000000 0.000000 -1.552227 -0.799237 10.367284 -2.046614 2.529276 -17.542692 2.649041 13.766933 26.659306 0.439948 0.729364 -2.972147 0.000000 0.000000 0.000000 -9.776386 -21.047113 -7.926704 -36.188153 -27.701405 3.547294 90.156843 -72.664701 -90.943354 0.000000 0.000000 0.000000 -4.716670 23.979083 13.773288 -15.318292 39.851903 -1.608261 -40.403488 13.227442 -1.112980 0.000000 0.000000 0.000000 
0.695142 0.943126 0.850837 -12.642017 83.884643 -15.908675 3.146247 -1.222508 -10.470037 -4.765084 -2.356400 14.141360 16.113056 21.569997 26.008570 0.000000 0.000000 0.000000 -7.265073 -3.735051 8.456430 0.817968 -4.431558 13.883028 0.524533 -0.819620 6.524262 0.000000 0.000000 0.000000 -0.921964 -0.810147 10.272163 -1.961870 2.516664 -17.736978 2.557441 14.094191 26.625662 0.883267 0.671506 -3.555694 0.000000 0.000000 0.000000 -9.191865 -21.651106 -7.712061 -35.991498 -28.475437 3.459434 93.316720 -72.037541 -93.888143 0.000000 0.000000 0.000000 -5.813340 24.795446 13.940759 -17.200277 39.964411 -1.777448 -36.383224 10.500944 -0.396483 0.000000 0.000000 0.000000 
0.697727 0.944826 0.852234 -18.175291 85.500289 -21.272079 3.019931 -1.176020 -10.098375 -4.224225 -2.218376 13.183408 14.808180 20.372932 25.112364 0.000000 0.000000 0.000000 -6.573966 -3.758507 8.978442 1.290693 -3.925596 11.490402 -2.274927 -3.837398 11.324682 0.000000 0.000000 0.000000 -0.658131 -0.792315 10.075458 -1.649332 2.450944 -17.279658 2.276109 13.965705 26.054303 0.973668 0.219472 -3.221206 0.000000 0.000000 0.000000 -8.918824 -22.056984 -7.753790 -36.228670 -28.879739 3.509970 95.429193 -70.873436 -95.106326 0.000000 0.000000 0.000000 -6.915051 25.277575 13.842612 -17.801527 39.432554 -1.629692 -36.628112 9.440986 0.012148 0.000000 0.000000 0.000000 
0.698618 0.945551 0.854659 -22.942034 87.004821 -25.642670 3.036878 -1.182266 -10.017892 -4.402898 -2.095767 12.085797 13.762306 19.432217 24.436373 0.000000 0.000000 0.000000 -6.122229 -3.751004 9.093213 1.828811 -3.397441 8.830165 -5.872089 -7.360397 17.052232 0.000000 0.000000 0.000000 -0.265278 -0.841156 10.273869 -1.984616 2.482471 -17.412431 2.356317 13.949927 25.719148 0.317908 0.549030 -3.385433 0.000000 0.000000 0.000000 -8.704543 -22.707506 -7.626614 -35.271626 -29.784635 3.451579 92.149226 -68.922945 -89.583585 0.000000 0.000000 0.000000 -6.804518 25.254317 14.259934 -19.786069 38.984105 -1.965530 -39.797268 9.261554 0.239136 0.000000 0.000000 0.000000 
0.697877 0.945817 0.858010 -43.596995 88.671068 -46.153690 2.382118 -1.125964 -10.077328 -3.333969 -2.003533 11.533521 12.376409 18.226656 23.521676 0.000000 0.000000 0.000000 -5.622193 -3.886778 9.833969 1.984400 -2.840421 6.266381 -8.566811 -9.845322 21.316436 0.000000 0.000000 0.000000 0.211937 -0.916725 10.497143 -1.592863 2.439202 -17.905128 1.856289 13.916152 26.137892 0.197447 0.484343 -3.602446 0.000000 0.000000 0.000000 -8.745070 -23.613143 -7.861176 -34.328607 -29.742435 3.400755 90.408756 -66.955910 -85.683993 0.000000 0.000000 0.000000 -7.070653 24.696507 14.282172 -21.031610 38.405569 -2.012377 -44.085685 8.838275 0.833016 0.000000 0.000000 0.000000 
0.695566 0.946282 0.862216 -114.295839 89.313146 -116.398170 2.077763 -1.133206 -10.306609 -2.814141 -1.854715 10.564870 11.299166 17.374024 23.139231 0.000000 0.000000 0.000000 -6.141853 -4.030044 9.552369 2.939352 -2.660890 3.646085 -10.987487 -10.017441 29.142377 0.000000 0.000000 0.000000 0.601296 -0.969454 10.671895 -1.713453 2.442982 -17.951922 1.945263 14.541385 26.117016 0.096512 0.470606 -3.907976 0.000000 0.000000 0.000000 -8.913412 -24.255359 -8.373442 -33.483807 -30.197777 3.491791 87.073587 -65.717978 -80.850589 0.000000 0.000000 0.000000 -8.514091 24.958070 13.996183 -21.456956 37.324712 -1.658418 -49.697554 8.333491 1.949659 0.000000 0.000000 0.000000 
0.691941 0.946584 0.867116 -174.862155 88.146307 -176.786586 1.691026 -1.106430 -10.354381 -2.471343 -1.726442 9.584619 9.975425 16.390212 22.760432 0.000000 0.000000 0.000000 -6.096252 -4.116433 9.596440 2.927841 -2.242892 1.300922 -13.461923 -10.906114 36.496925 0.000000 0.000000 0.000000 0.850564 -1.097258 11.191149 -1.510141 2.411018 -17.966509 1.990758 14.973705 26.086653 -0.818727 0.481507 -3.675103 0.000000 0.000000 0.000000 -8.966614 -25.206592 -8.628063 -32.493566 -29.847352 3.455135 85.505248 -64.030899 -77.584006 0.000000 0.000000 0.000000 -9.161166 25.016957 14.123225 -22.309178 37.002144 -1.594512 -54.382437 7.166210 3.308740 0.000000 0.000000 0.000000 
0.688067 0.946592 0.872404 176.574675 86.742291 175.030669 1.787486 -1.164717 -10.573059 -2.783968 -1.662987 8.479804 9.005990 15.573319 22.648148 0.000000 0.000000 0.000000 -6.540776 -4.248721 9.149437 3.992907 -2.374801 -1.009012 -16.403809 -12.477695 46.142596 0.000000 0.000000 0.000000 0.984861 -1.145178 11.380575 -1.652069 2.359906 -17.305733 2.150988 15.712904 25.324858 -0.831988 0.188459 -3.783824 0.000000 0.000000 0.000000 -8.492560 -25.763214 -8.683308 -31.849508 -30.055283 3.328180 84.611042 -63.356167 -76.317172 0.000000 0.000000 0.000000 -9.731651 25.077216 14.422910 -21.577203 37.031844 -1.318190 -59.947359 6.925443 4.627562 0.000000 0.000000 0.000000 
0.684242 0.946657 0.877561 170.477883 84.659068 168.956731 1.327207 -1.073631 -10.195022 -2.862405 -1.580239 6.940149 7.482178 14.349904 22.368264 0.000000 0.000000 0.000000 -6.513334 -4.370545 9.108419 3.530585 -2.076114 -2.542006 -18.669893 -14.026319 54.245960 0.000000 0.000000 0.000000 0.929815 -1.261441 11.916377 -1.957203 2.305240 -16.894215 2.335674 16.350374 24.932321 -2.094884 -0.571652 -2.430979 0.000000 0.000000 0.000000 -8.099767 -26.669066 -8.780818 -30.918209 -30.048978 3.179081 85.583802 -63.850298 -77.817968 0.000000 0.000000 0.000000 -8.526542 24.657924 15.795312 -20.907837 36.979084 -1.391683 -65.223176 7.958902 4.943602 0.000000 0.000000 0.000000 
0.680982 0.946024 0.882324 168.849853 82.042120 167.284761 1.103073 -1.034137 -9.940038 -3.506965 -1.700005 5.709818 5.982303 13.012372 22.049216 0.000000 0.000000 0.000000 -6.646561 -4.603311 9.060087 3.340992 -2.051204 -3.194050 -20.421866 -15.427208 60.868481 0.000000 0.000000 0.000000 0.705688 -1.325004 12.307940 -2.037385 2.164357 -16.220882 2.227042 17.067088 24.372636 -2.930506 -1.345450 -1.819372 0.000000 0.000000 0.000000 -7.735308 -27.022106 -9.417174 -30.302449 -30.210394 3.133606 87.552971 -65.274905 -80.953873 0.000000 0.000000 0.000000 -7.184402 23.963568 17.429214 -19.705103 36.469050 -1.372827 -69.903701 9.199704 5.035354 0.000000 0.000000 0.000000 
0.678478 0.945737 0.886404 168.358021 79.603033 166.695337 0.846665 -0.965945 -9.527384 -4.006178 -1.855756 4.451979 4.511903 11.813709 21.905661 0.000000 0.000000 0.000000 -6.903877 -4.944400 9.411780 3.665876 -2.286722 -3.201586 -21.315145 -15.930513 61.745424 0.000000 0.000000 0.000000 0.512704 -1.321145 12.374150 -2.209488 2.023406 -15.792489 2.259863 17.963922 24.060116 -4.352717 -2.354400 -0.706966 0.000000 0.000000 0.000000 -6.629294 -27.781375 -9.293940 -30.211595 -30.962021 2.826829 89.569277 -66.384737 -84.759108 0.000000 0.000000 0.000000 -5.612026 23.059804 19.289197 -17.864864 36.303503 -1.307509 -74.645440 10.538205 4.918956 0.000000 0.000000 0.000000 
